<mxfile host="app.diagrams.net" modified="2020-12-14T14:29:46.897Z" agent="5.0 (Windows NT 10.0; Win64; x64) AppleWebKit/537.36 (KHTML, like Gecko) Chrome/87.0.4280.88 Safari/537.36" etag="b1qPtmC4K_zy29uZAT3k" version="14.0.1" type="github">
  <diagram id="qElNir9mSqBX0WAW5DR5" name="Page-1">
    <mxGraphModel dx="1741" dy="1557" grid="1" gridSize="10" guides="1" tooltips="1" connect="1" arrows="1" fold="1" page="1" pageScale="1" pageWidth="850" pageHeight="1100" math="0" shadow="0">
      <root>
        <mxCell id="0" />
        <mxCell id="1" parent="0" />
        <mxCell id="aLwHEmpXXD0iLYEQgi4S-109" style="edgeStyle=orthogonalEdgeStyle;rounded=0;orthogonalLoop=1;jettySize=auto;html=1;entryX=1.002;entryY=0.312;entryDx=0;entryDy=0;entryPerimeter=0;" edge="1" parent="1" source="aLwHEmpXXD0iLYEQgi4S-1" target="aLwHEmpXXD0iLYEQgi4S-30">
          <mxGeometry relative="1" as="geometry" />
        </mxCell>
        <mxCell id="aLwHEmpXXD0iLYEQgi4S-1" value="Dog" style="swimlane;fontStyle=1;align=center;verticalAlign=top;childLayout=stackLayout;horizontal=1;startSize=26;horizontalStack=0;resizeParent=1;resizeParentMax=0;resizeLast=0;collapsible=1;marginBottom=0;fillColor=#FFFFFF;" vertex="1" parent="1">
          <mxGeometry x="-510" y="-981" width="170" height="114" as="geometry" />
        </mxCell>
        <mxCell id="aLwHEmpXXD0iLYEQgi4S-2" value="- specializition: String&#xa;- levelOfTraining: int&#xa;- dogIncome: BigDecimal" style="text;strokeColor=none;align=left;verticalAlign=top;spacingLeft=4;spacingRight=4;overflow=hidden;rotatable=0;points=[[0,0.5],[1,0.5]];portConstraint=eastwest;fillColor=#ffffff;" vertex="1" parent="aLwHEmpXXD0iLYEQgi4S-1">
          <mxGeometry y="26" width="170" height="54" as="geometry" />
        </mxCell>
        <mxCell id="aLwHEmpXXD0iLYEQgi4S-3" value="" style="line;strokeWidth=1;fillColor=none;align=left;verticalAlign=middle;spacingTop=-1;spacingLeft=3;spacingRight=3;rotatable=0;labelPosition=right;points=[];portConstraint=eastwest;" vertex="1" parent="aLwHEmpXXD0iLYEQgi4S-1">
          <mxGeometry y="80" width="170" height="4" as="geometry" />
        </mxCell>
        <mxCell id="aLwHEmpXXD0iLYEQgi4S-4" value="+ constructor" style="text;strokeColor=none;align=left;verticalAlign=top;spacingLeft=4;spacingRight=4;overflow=hidden;rotatable=0;points=[[0,0.5],[1,0.5]];portConstraint=eastwest;fillColor=#ffffff;" vertex="1" parent="aLwHEmpXXD0iLYEQgi4S-1">
          <mxGeometry y="84" width="170" height="30" as="geometry" />
        </mxCell>
        <mxCell id="aLwHEmpXXD0iLYEQgi4S-5" value="AnimalKeeper" style="swimlane;fontStyle=1;align=center;verticalAlign=top;childLayout=stackLayout;horizontal=1;startSize=26;horizontalStack=0;resizeParent=1;resizeParentMax=0;resizeLast=0;collapsible=1;marginBottom=0;fillColor=#FFFFFF;" vertex="1" parent="1">
          <mxGeometry x="-50" y="-970" width="170" height="84" as="geometry" />
        </mxCell>
        <mxCell id="aLwHEmpXXD0iLYEQgi4S-6" value="" style="text;strokeColor=none;align=left;verticalAlign=top;spacingLeft=4;spacingRight=4;overflow=hidden;rotatable=0;points=[[0,0.5],[1,0.5]];portConstraint=eastwest;fillColor=#ffffff;" vertex="1" parent="aLwHEmpXXD0iLYEQgi4S-5">
          <mxGeometry y="26" width="170" height="24" as="geometry" />
        </mxCell>
        <mxCell id="aLwHEmpXXD0iLYEQgi4S-7" value="" style="line;strokeWidth=1;fillColor=none;align=left;verticalAlign=middle;spacingTop=-1;spacingLeft=3;spacingRight=3;rotatable=0;labelPosition=right;points=[];portConstraint=eastwest;" vertex="1" parent="aLwHEmpXXD0iLYEQgi4S-5">
          <mxGeometry y="50" width="170" height="4" as="geometry" />
        </mxCell>
        <mxCell id="aLwHEmpXXD0iLYEQgi4S-8" value="+ constructor" style="text;strokeColor=none;align=left;verticalAlign=top;spacingLeft=4;spacingRight=4;overflow=hidden;rotatable=0;points=[[0,0.5],[1,0.5]];portConstraint=eastwest;fillColor=#ffffff;" vertex="1" parent="aLwHEmpXXD0iLYEQgi4S-5">
          <mxGeometry y="54" width="170" height="30" as="geometry" />
        </mxCell>
        <mxCell id="aLwHEmpXXD0iLYEQgi4S-9" value="Veterinarian" style="swimlane;fontStyle=1;align=center;verticalAlign=top;childLayout=stackLayout;horizontal=1;startSize=26;horizontalStack=0;resizeParent=1;resizeParentMax=0;resizeLast=0;collapsible=1;marginBottom=0;fillColor=#FFFFFF;" vertex="1" parent="1">
          <mxGeometry x="-50" y="-1070" width="170" height="84" as="geometry" />
        </mxCell>
        <mxCell id="aLwHEmpXXD0iLYEQgi4S-10" value="" style="text;strokeColor=none;align=left;verticalAlign=top;spacingLeft=4;spacingRight=4;overflow=hidden;rotatable=0;points=[[0,0.5],[1,0.5]];portConstraint=eastwest;fillColor=#ffffff;" vertex="1" parent="aLwHEmpXXD0iLYEQgi4S-9">
          <mxGeometry y="26" width="170" height="24" as="geometry" />
        </mxCell>
        <mxCell id="aLwHEmpXXD0iLYEQgi4S-11" value="" style="line;strokeWidth=1;fillColor=none;align=left;verticalAlign=middle;spacingTop=-1;spacingLeft=3;spacingRight=3;rotatable=0;labelPosition=right;points=[];portConstraint=eastwest;" vertex="1" parent="aLwHEmpXXD0iLYEQgi4S-9">
          <mxGeometry y="50" width="170" height="4" as="geometry" />
        </mxCell>
        <mxCell id="aLwHEmpXXD0iLYEQgi4S-12" value="+ constructor" style="text;strokeColor=none;align=left;verticalAlign=top;spacingLeft=4;spacingRight=4;overflow=hidden;rotatable=0;points=[[0,0.5],[1,0.5]];portConstraint=eastwest;fillColor=#ffffff;" vertex="1" parent="aLwHEmpXXD0iLYEQgi4S-9">
          <mxGeometry y="54" width="170" height="30" as="geometry" />
        </mxCell>
        <mxCell id="aLwHEmpXXD0iLYEQgi4S-25" value="abstract class&#xa;Worker" style="swimlane;fontStyle=1;align=center;verticalAlign=top;childLayout=stackLayout;horizontal=1;startSize=40;horizontalStack=0;resizeParent=1;resizeParentMax=0;resizeLast=0;collapsible=1;marginBottom=0;fillColor=#FFFFFF;" vertex="1" parent="1">
          <mxGeometry x="-280" y="-986" width="180" height="178" as="geometry" />
        </mxCell>
        <mxCell id="aLwHEmpXXD0iLYEQgi4S-26" value="- id: int&#xa;- farmId: int&#xa;- name: String&#xa;- hoursWorkedPerDay: int&#xa;- maxWorkingHoursPerDay: int&#xa;- salary: BigDecimal" style="text;strokeColor=none;align=left;verticalAlign=top;spacingLeft=4;spacingRight=4;overflow=hidden;rotatable=0;points=[[0,0.5],[1,0.5]];portConstraint=eastwest;fillColor=#ffffff;" vertex="1" parent="aLwHEmpXXD0iLYEQgi4S-25">
          <mxGeometry y="40" width="180" height="104" as="geometry" />
        </mxCell>
        <mxCell id="aLwHEmpXXD0iLYEQgi4S-27" value="" style="line;strokeWidth=1;fillColor=none;align=left;verticalAlign=middle;spacingTop=-1;spacingLeft=3;spacingRight=3;rotatable=0;labelPosition=right;points=[];portConstraint=eastwest;" vertex="1" parent="aLwHEmpXXD0iLYEQgi4S-25">
          <mxGeometry y="144" width="180" height="4" as="geometry" />
        </mxCell>
        <mxCell id="aLwHEmpXXD0iLYEQgi4S-28" value="+ constructor" style="text;strokeColor=none;align=left;verticalAlign=top;spacingLeft=4;spacingRight=4;overflow=hidden;rotatable=0;points=[[0,0.5],[1,0.5]];portConstraint=eastwest;fillColor=#ffffff;" vertex="1" parent="aLwHEmpXXD0iLYEQgi4S-25">
          <mxGeometry y="148" width="180" height="30" as="geometry" />
        </mxCell>
        <mxCell id="aLwHEmpXXD0iLYEQgi4S-29" value="abstract class&#xa;Animal" style="swimlane;fontStyle=1;align=center;verticalAlign=top;childLayout=stackLayout;horizontal=1;startSize=40;horizontalStack=0;resizeParent=1;resizeParentMax=0;resizeLast=0;collapsible=1;marginBottom=0;fillColor=#FFFFFF;" vertex="1" parent="1">
          <mxGeometry x="-710" y="-990" width="170" height="174" as="geometry" />
        </mxCell>
        <mxCell id="aLwHEmpXXD0iLYEQgi4S-30" value="- id: int&#xa;- farmId: int&#xa;- name: String&#xa;- age: int&#xa;- healthCondition: String&#xa;- hungerCondition: String" style="text;strokeColor=none;align=left;verticalAlign=top;spacingLeft=4;spacingRight=4;overflow=hidden;rotatable=0;points=[[0,0.5],[1,0.5]];portConstraint=eastwest;fillColor=#ffffff;" vertex="1" parent="aLwHEmpXXD0iLYEQgi4S-29">
          <mxGeometry y="40" width="170" height="100" as="geometry" />
        </mxCell>
        <mxCell id="aLwHEmpXXD0iLYEQgi4S-31" value="" style="line;strokeWidth=1;fillColor=none;align=left;verticalAlign=middle;spacingTop=-1;spacingLeft=3;spacingRight=3;rotatable=0;labelPosition=right;points=[];portConstraint=eastwest;" vertex="1" parent="aLwHEmpXXD0iLYEQgi4S-29">
          <mxGeometry y="140" width="170" height="4" as="geometry" />
        </mxCell>
        <mxCell id="aLwHEmpXXD0iLYEQgi4S-32" value="+ constructor" style="text;strokeColor=none;align=left;verticalAlign=top;spacingLeft=4;spacingRight=4;overflow=hidden;rotatable=0;points=[[0,0.5],[1,0.5]];portConstraint=eastwest;fillColor=#ffffff;" vertex="1" parent="aLwHEmpXXD0iLYEQgi4S-29">
          <mxGeometry y="144" width="170" height="30" as="geometry" />
        </mxCell>
        <mxCell id="aLwHEmpXXD0iLYEQgi4S-34" value="Area" style="swimlane;fontStyle=1;align=center;verticalAlign=top;childLayout=stackLayout;horizontal=1;startSize=40;horizontalStack=0;resizeParent=1;resizeParentMax=0;resizeLast=0;collapsible=1;marginBottom=0;fillColor=#FFFFFF;" vertex="1" parent="1">
          <mxGeometry x="220" y="-1010" width="170" height="178" as="geometry" />
        </mxCell>
        <mxCell id="aLwHEmpXXD0iLYEQgi4S-35" value="- id: int&#xa;- type: String&#xa;(TrainingArea orÂ &#xa;AnimalKennel)&#xa;- animalCapacity: int&#xa;- cleannessCondition: String&#xa;" style="text;strokeColor=none;align=left;verticalAlign=top;spacingLeft=4;spacingRight=4;overflow=hidden;rotatable=0;points=[[0,0.5],[1,0.5]];portConstraint=eastwest;fillColor=#ffffff;" vertex="1" parent="aLwHEmpXXD0iLYEQgi4S-34">
          <mxGeometry y="40" width="170" height="104" as="geometry" />
        </mxCell>
        <mxCell id="aLwHEmpXXD0iLYEQgi4S-36" value="" style="line;strokeWidth=1;fillColor=none;align=left;verticalAlign=middle;spacingTop=-1;spacingLeft=3;spacingRight=3;rotatable=0;labelPosition=right;points=[];portConstraint=eastwest;" vertex="1" parent="aLwHEmpXXD0iLYEQgi4S-34">
          <mxGeometry y="144" width="170" height="4" as="geometry" />
        </mxCell>
        <mxCell id="aLwHEmpXXD0iLYEQgi4S-37" value="+ constructor" style="text;strokeColor=none;align=left;verticalAlign=top;spacingLeft=4;spacingRight=4;overflow=hidden;rotatable=0;points=[[0,0.5],[1,0.5]];portConstraint=eastwest;fillColor=#ffffff;" vertex="1" parent="aLwHEmpXXD0iLYEQgi4S-34">
          <mxGeometry y="148" width="170" height="30" as="geometry" />
        </mxCell>
        <mxCell id="aLwHEmpXXD0iLYEQgi4S-38" value="" style="endArrow=none;dashed=1;html=1;dashPattern=1 3;strokeWidth=5;fillColor=#f8cecc;strokeColor=#b85450;" edge="1" parent="1">
          <mxGeometry width="50" height="50" relative="1" as="geometry">
            <mxPoint x="-840" y="-780" as="sourcePoint" />
            <mxPoint x="605" y="-780" as="targetPoint" />
          </mxGeometry>
        </mxCell>
        <mxCell id="aLwHEmpXXD0iLYEQgi4S-43" value="interface&#xa;AnimalRepository" style="swimlane;fontStyle=1;align=center;verticalAlign=top;childLayout=stackLayout;horizontal=1;startSize=50;horizontalStack=0;resizeParent=1;resizeParentMax=0;resizeLast=0;collapsible=1;marginBottom=0;fillColor=#FFFFFF;" vertex="1" parent="1">
          <mxGeometry x="-720" y="-770" width="190" height="140" as="geometry" />
        </mxCell>
        <mxCell id="aLwHEmpXXD0iLYEQgi4S-44" value="" style="text;strokeColor=none;align=left;verticalAlign=top;spacingLeft=4;spacingRight=4;overflow=hidden;rotatable=0;points=[[0,0.5],[1,0.5]];portConstraint=eastwest;fillColor=#ffffff;" vertex="1" parent="aLwHEmpXXD0iLYEQgi4S-43">
          <mxGeometry y="50" width="190" height="20" as="geometry" />
        </mxCell>
        <mxCell id="aLwHEmpXXD0iLYEQgi4S-45" value="" style="line;strokeWidth=1;fillColor=none;align=left;verticalAlign=middle;spacingTop=-1;spacingLeft=3;spacingRight=3;rotatable=0;labelPosition=right;points=[];portConstraint=eastwest;" vertex="1" parent="aLwHEmpXXD0iLYEQgi4S-43">
          <mxGeometry y="70" width="190" height="8" as="geometry" />
        </mxCell>
        <mxCell id="aLwHEmpXXD0iLYEQgi4S-46" value="+ Collection&lt;Animal&gt; receiveAll()&#xa;+ void add(Animal animal)&#xa;+ void delete(int id)" style="text;strokeColor=none;align=left;verticalAlign=top;spacingLeft=4;spacingRight=4;overflow=hidden;rotatable=0;points=[[0,0.5],[1,0.5]];portConstraint=eastwest;fillColor=#ffffff;" vertex="1" parent="aLwHEmpXXD0iLYEQgi4S-43">
          <mxGeometry y="78" width="190" height="62" as="geometry" />
        </mxCell>
        <mxCell id="aLwHEmpXXD0iLYEQgi4S-47" value="interface&#xa;WorkerRepository" style="swimlane;fontStyle=1;align=center;verticalAlign=top;childLayout=stackLayout;horizontal=1;startSize=50;horizontalStack=0;resizeParent=1;resizeParentMax=0;resizeLast=0;collapsible=1;marginBottom=0;fillColor=#FFFFFF;" vertex="1" parent="1">
          <mxGeometry x="-260" y="-750" width="190" height="180" as="geometry" />
        </mxCell>
        <mxCell id="aLwHEmpXXD0iLYEQgi4S-49" value="" style="line;strokeWidth=1;fillColor=none;align=left;verticalAlign=middle;spacingTop=-1;spacingLeft=3;spacingRight=3;rotatable=0;labelPosition=right;points=[];portConstraint=eastwest;" vertex="1" parent="aLwHEmpXXD0iLYEQgi4S-47">
          <mxGeometry y="50" width="190" height="20" as="geometry" />
        </mxCell>
        <mxCell id="aLwHEmpXXD0iLYEQgi4S-50" value="+ Collection&lt;Worker&gt; &#xa;recieveAll()&#xa;+ void add (Worker worker)&#xa;+ void delete (int id)" style="text;strokeColor=none;align=left;verticalAlign=top;spacingLeft=4;spacingRight=4;overflow=hidden;rotatable=0;points=[[0,0.5],[1,0.5]];portConstraint=eastwest;fillColor=#ffffff;" vertex="1" parent="aLwHEmpXXD0iLYEQgi4S-47">
          <mxGeometry y="70" width="190" height="110" as="geometry" />
        </mxCell>
        <mxCell id="aLwHEmpXXD0iLYEQgi4S-51" value="interface&#xa;AreaRepository" style="swimlane;fontStyle=1;align=center;verticalAlign=top;childLayout=stackLayout;horizontal=1;startSize=50;horizontalStack=0;resizeParent=1;resizeParentMax=0;resizeLast=0;collapsible=1;marginBottom=0;fillColor=#FFFFFF;" vertex="1" parent="1">
          <mxGeometry x="190" y="-760" width="190" height="150" as="geometry" />
        </mxCell>
        <mxCell id="aLwHEmpXXD0iLYEQgi4S-52" value="" style="text;strokeColor=none;align=left;verticalAlign=top;spacingLeft=4;spacingRight=4;overflow=hidden;rotatable=0;points=[[0,0.5],[1,0.5]];portConstraint=eastwest;fillColor=#ffffff;" vertex="1" parent="aLwHEmpXXD0iLYEQgi4S-51">
          <mxGeometry y="50" width="190" height="20" as="geometry" />
        </mxCell>
        <mxCell id="aLwHEmpXXD0iLYEQgi4S-53" value="" style="line;strokeWidth=1;fillColor=none;align=left;verticalAlign=middle;spacingTop=-1;spacingLeft=3;spacingRight=3;rotatable=0;labelPosition=right;points=[];portConstraint=eastwest;" vertex="1" parent="aLwHEmpXXD0iLYEQgi4S-51">
          <mxGeometry y="70" width="190" height="8" as="geometry" />
        </mxCell>
        <mxCell id="aLwHEmpXXD0iLYEQgi4S-54" value="+ Collection&lt;Area&gt; recieveAll()&#xa;+ Area reciveByType (String type)&#xa;+ void addArea (Area area)&#xa;+ void deleteArea (int id)" style="text;strokeColor=none;align=left;verticalAlign=top;spacingLeft=4;spacingRight=4;overflow=hidden;rotatable=0;points=[[0,0.5],[1,0.5]];portConstraint=eastwest;fillColor=#ffffff;" vertex="1" parent="aLwHEmpXXD0iLYEQgi4S-51">
          <mxGeometry y="78" width="190" height="72" as="geometry" />
        </mxCell>
        <mxCell id="aLwHEmpXXD0iLYEQgi4S-114" style="edgeStyle=orthogonalEdgeStyle;rounded=0;orthogonalLoop=1;jettySize=auto;html=1;entryX=1;entryY=0.5;entryDx=0;entryDy=0;dashed=1;endArrow=blockThin;endFill=0;" edge="1" parent="1" source="aLwHEmpXXD0iLYEQgi4S-55" target="aLwHEmpXXD0iLYEQgi4S-44">
          <mxGeometry relative="1" as="geometry">
            <Array as="points">
              <mxPoint x="-510" y="-665" />
              <mxPoint x="-510" y="-690" />
            </Array>
          </mxGeometry>
        </mxCell>
        <mxCell id="aLwHEmpXXD0iLYEQgi4S-55" value="DogRepositoryImpl" style="swimlane;fontStyle=1;align=center;verticalAlign=top;childLayout=stackLayout;horizontal=1;startSize=30;horizontalStack=0;resizeParent=1;resizeParentMax=0;resizeLast=0;collapsible=1;marginBottom=0;fillColor=#FFFFFF;" vertex="1" parent="1">
          <mxGeometry x="-490" y="-750" width="190" height="120" as="geometry" />
        </mxCell>
        <mxCell id="aLwHEmpXXD0iLYEQgi4S-56" value="" style="text;strokeColor=none;align=left;verticalAlign=top;spacingLeft=4;spacingRight=4;overflow=hidden;rotatable=0;points=[[0,0.5],[1,0.5]];portConstraint=eastwest;fillColor=#ffffff;" vertex="1" parent="aLwHEmpXXD0iLYEQgi4S-55">
          <mxGeometry y="30" width="190" height="10" as="geometry" />
        </mxCell>
        <mxCell id="aLwHEmpXXD0iLYEQgi4S-48" value="" style="text;strokeColor=none;align=left;verticalAlign=top;spacingLeft=4;spacingRight=4;overflow=hidden;rotatable=0;points=[[0,0.5],[1,0.5]];portConstraint=eastwest;fillColor=#ffffff;" vertex="1" parent="aLwHEmpXXD0iLYEQgi4S-55">
          <mxGeometry y="40" width="190" height="10" as="geometry" />
        </mxCell>
        <mxCell id="aLwHEmpXXD0iLYEQgi4S-57" value="" style="line;strokeWidth=1;fillColor=none;align=left;verticalAlign=middle;spacingTop=-1;spacingLeft=3;spacingRight=3;rotatable=0;labelPosition=right;points=[];portConstraint=eastwest;" vertex="1" parent="aLwHEmpXXD0iLYEQgi4S-55">
          <mxGeometry y="50" width="190" height="8" as="geometry" />
        </mxCell>
        <mxCell id="aLwHEmpXXD0iLYEQgi4S-58" value="+ Collection&lt;Animal&gt; receiveAll()&#xa;+ void add(Animal animal)&#xa;+ void delete(int id)" style="text;strokeColor=none;align=left;verticalAlign=top;spacingLeft=4;spacingRight=4;overflow=hidden;rotatable=0;points=[[0,0.5],[1,0.5]];portConstraint=eastwest;fillColor=#ffffff;" vertex="1" parent="aLwHEmpXXD0iLYEQgi4S-55">
          <mxGeometry y="58" width="190" height="62" as="geometry" />
        </mxCell>
        <mxCell id="aLwHEmpXXD0iLYEQgi4S-59" value="" style="endArrow=none;dashed=1;html=1;dashPattern=1 3;strokeWidth=5;fillColor=#f8cecc;strokeColor=#b85450;" edge="1" parent="1">
          <mxGeometry width="50" height="50" relative="1" as="geometry">
            <mxPoint x="-824.9999999999999" y="-560" as="sourcePoint" />
            <mxPoint x="575" y="-560" as="targetPoint" />
          </mxGeometry>
        </mxCell>
        <mxCell id="aLwHEmpXXD0iLYEQgi4S-60" value="&lt;span style=&quot;font-size: 21px&quot;&gt;Model&lt;/span&gt;" style="text;html=1;strokeColor=none;fillColor=none;align=center;verticalAlign=middle;whiteSpace=wrap;rounded=0;strokeWidth=1;" vertex="1" parent="1">
          <mxGeometry x="-840" y="-927" width="100" height="80" as="geometry" />
        </mxCell>
        <mxCell id="aLwHEmpXXD0iLYEQgi4S-61" value="&lt;font style=&quot;font-size: 21px&quot;&gt;DAO Layer&lt;/font&gt;" style="text;html=1;strokeColor=none;fillColor=none;align=center;verticalAlign=middle;whiteSpace=wrap;rounded=0;strokeWidth=1;" vertex="1" parent="1">
          <mxGeometry x="-840" y="-700" width="100" height="80" as="geometry" />
        </mxCell>
        <mxCell id="aLwHEmpXXD0iLYEQgi4S-62" value="&lt;font style=&quot;font-size: 21px&quot;&gt;Service Layer&lt;/font&gt;" style="text;html=1;strokeColor=none;fillColor=none;align=center;verticalAlign=middle;whiteSpace=wrap;rounded=0;strokeWidth=1;" vertex="1" parent="1">
          <mxGeometry x="-840" y="-325" width="100" height="80" as="geometry" />
        </mxCell>
        <mxCell id="aLwHEmpXXD0iLYEQgi4S-75" value="interface&#xa;WorkerService" style="swimlane;fontStyle=1;align=center;verticalAlign=top;childLayout=stackLayout;horizontal=1;startSize=50;horizontalStack=0;resizeParent=1;resizeParentMax=0;resizeLast=0;collapsible=1;marginBottom=0;fillColor=#FFFFFF;" vertex="1" parent="1">
          <mxGeometry x="-270" y="-530" width="190" height="300" as="geometry" />
        </mxCell>
        <mxCell id="aLwHEmpXXD0iLYEQgi4S-76" value="" style="text;strokeColor=none;align=left;verticalAlign=top;spacingLeft=4;spacingRight=4;overflow=hidden;rotatable=0;points=[[0,0.5],[1,0.5]];portConstraint=eastwest;fillColor=#ffffff;" vertex="1" parent="aLwHEmpXXD0iLYEQgi4S-75">
          <mxGeometry y="50" width="190" height="20" as="geometry" />
        </mxCell>
        <mxCell id="aLwHEmpXXD0iLYEQgi4S-77" value="" style="line;strokeWidth=1;fillColor=none;align=left;verticalAlign=middle;spacingTop=-1;spacingLeft=3;spacingRight=3;rotatable=0;labelPosition=right;points=[];portConstraint=eastwest;" vertex="1" parent="aLwHEmpXXD0iLYEQgi4S-75">
          <mxGeometry y="70" width="190" height="8" as="geometry" />
        </mxCell>
        <mxCell id="aLwHEmpXXD0iLYEQgi4S-78" value="+ Collection&lt;Worker&gt; &#xa;receiveAllFromFarm(int farmId)&#xa;+ void add(Worker worker)&#xa;+ void delete(int id)&#xa;&#xa;+ Worker receiveWhoFeed&#xa;(Animal animal);&#xa;+ Worker receiveWhoTreatÂ &#xa;(Animal animal)&#xa;+ Worker receiveWhoTrain&#xa;(Animal animal)&#xa;+ Worker receiveWhoEntertainÂ &#xa;(Animal animal)&#xa;+ Worker receiveWhoClean&#xa;(Area area)&#xa;" style="text;strokeColor=none;align=left;verticalAlign=top;spacingLeft=4;spacingRight=4;overflow=hidden;rotatable=0;points=[[0,0.5],[1,0.5]];portConstraint=eastwest;fillColor=#ffffff;" vertex="1" parent="aLwHEmpXXD0iLYEQgi4S-75">
          <mxGeometry y="78" width="190" height="222" as="geometry" />
        </mxCell>
        <mxCell id="aLwHEmpXXD0iLYEQgi4S-113" style="edgeStyle=orthogonalEdgeStyle;rounded=0;orthogonalLoop=1;jettySize=auto;html=1;exitX=0;exitY=0.5;exitDx=0;exitDy=0;entryX=1;entryY=0.75;entryDx=0;entryDy=0;" edge="1" parent="1" source="aLwHEmpXXD0iLYEQgi4S-83" target="aLwHEmpXXD0iLYEQgi4S-25">
          <mxGeometry relative="1" as="geometry" />
        </mxCell>
        <mxCell id="aLwHEmpXXD0iLYEQgi4S-83" value="DogTrainer" style="swimlane;fontStyle=1;align=center;verticalAlign=top;childLayout=stackLayout;horizontal=1;startSize=26;horizontalStack=0;resizeParent=1;resizeParentMax=0;resizeLast=0;collapsible=1;marginBottom=0;fillColor=#FFFFFF;" vertex="1" parent="1">
          <mxGeometry x="-50" y="-876" width="170" height="84" as="geometry" />
        </mxCell>
        <mxCell id="aLwHEmpXXD0iLYEQgi4S-84" value="" style="text;strokeColor=none;align=left;verticalAlign=top;spacingLeft=4;spacingRight=4;overflow=hidden;rotatable=0;points=[[0,0.5],[1,0.5]];portConstraint=eastwest;fillColor=#ffffff;" vertex="1" parent="aLwHEmpXXD0iLYEQgi4S-83">
          <mxGeometry y="26" width="170" height="24" as="geometry" />
        </mxCell>
        <mxCell id="aLwHEmpXXD0iLYEQgi4S-85" value="" style="line;strokeWidth=1;fillColor=none;align=left;verticalAlign=middle;spacingTop=-1;spacingLeft=3;spacingRight=3;rotatable=0;labelPosition=right;points=[];portConstraint=eastwest;" vertex="1" parent="aLwHEmpXXD0iLYEQgi4S-83">
          <mxGeometry y="50" width="170" height="4" as="geometry" />
        </mxCell>
        <mxCell id="aLwHEmpXXD0iLYEQgi4S-86" value="+ constructor" style="text;strokeColor=none;align=left;verticalAlign=top;spacingLeft=4;spacingRight=4;overflow=hidden;rotatable=0;points=[[0,0.5],[1,0.5]];portConstraint=eastwest;fillColor=#ffffff;" vertex="1" parent="aLwHEmpXXD0iLYEQgi4S-83">
          <mxGeometry y="54" width="170" height="30" as="geometry" />
        </mxCell>
        <mxCell id="aLwHEmpXXD0iLYEQgi4S-116" style="edgeStyle=orthogonalEdgeStyle;rounded=0;orthogonalLoop=1;jettySize=auto;html=1;exitX=0;exitY=0.5;exitDx=0;exitDy=0;entryX=0.995;entryY=0.198;entryDx=0;entryDy=0;entryPerimeter=0;dashed=1;endArrow=blockThin;endFill=0;" edge="1" parent="1" source="aLwHEmpXXD0iLYEQgi4S-99" target="aLwHEmpXXD0iLYEQgi4S-47">
          <mxGeometry relative="1" as="geometry" />
        </mxCell>
        <mxCell id="aLwHEmpXXD0iLYEQgi4S-99" value="WorkerRepositoryImpl" style="swimlane;fontStyle=1;align=center;verticalAlign=top;childLayout=stackLayout;horizontal=1;startSize=30;horizontalStack=0;resizeParent=1;resizeParentMax=0;resizeLast=0;collapsible=1;marginBottom=0;fillColor=#FFFFFF;" vertex="1" parent="1">
          <mxGeometry x="-40" y="-750" width="190" height="140" as="geometry" />
        </mxCell>
        <mxCell id="aLwHEmpXXD0iLYEQgi4S-100" value="" style="text;strokeColor=none;align=left;verticalAlign=top;spacingLeft=4;spacingRight=4;overflow=hidden;rotatable=0;points=[[0,0.5],[1,0.5]];portConstraint=eastwest;fillColor=#ffffff;" vertex="1" parent="aLwHEmpXXD0iLYEQgi4S-99">
          <mxGeometry y="30" width="190" height="20" as="geometry" />
        </mxCell>
        <mxCell id="aLwHEmpXXD0iLYEQgi4S-101" value="" style="line;strokeWidth=1;fillColor=none;align=left;verticalAlign=middle;spacingTop=-1;spacingLeft=3;spacingRight=3;rotatable=0;labelPosition=right;points=[];portConstraint=eastwest;" vertex="1" parent="aLwHEmpXXD0iLYEQgi4S-99">
          <mxGeometry y="50" width="190" height="8" as="geometry" />
        </mxCell>
        <mxCell id="aLwHEmpXXD0iLYEQgi4S-102" value="+Â  Worker recieveWorkerByIdÂ &#xa;(int id)&#xa;+ Collection&lt;Worker&gt; recieveAll()&#xa;+ void addWorker (Worker worker)&#xa;+ void deleteWorker (int id)" style="text;strokeColor=none;align=left;verticalAlign=top;spacingLeft=4;spacingRight=4;overflow=hidden;rotatable=0;points=[[0,0.5],[1,0.5]];portConstraint=eastwest;fillColor=#ffffff;" vertex="1" parent="aLwHEmpXXD0iLYEQgi4S-99">
          <mxGeometry y="58" width="190" height="82" as="geometry" />
        </mxCell>
        <mxCell id="aLwHEmpXXD0iLYEQgi4S-111" style="edgeStyle=orthogonalEdgeStyle;rounded=0;orthogonalLoop=1;jettySize=auto;html=1;entryX=1;entryY=0.25;entryDx=0;entryDy=0;" edge="1" parent="1" source="aLwHEmpXXD0iLYEQgi4S-10" target="aLwHEmpXXD0iLYEQgi4S-25">
          <mxGeometry relative="1" as="geometry" />
        </mxCell>
        <mxCell id="aLwHEmpXXD0iLYEQgi4S-112" style="edgeStyle=orthogonalEdgeStyle;rounded=0;orthogonalLoop=1;jettySize=auto;html=1;exitX=0;exitY=0.5;exitDx=0;exitDy=0;entryX=1;entryY=0.5;entryDx=0;entryDy=0;" edge="1" parent="1" source="aLwHEmpXXD0iLYEQgi4S-6" target="aLwHEmpXXD0iLYEQgi4S-26">
          <mxGeometry relative="1" as="geometry" />
        </mxCell>
        <mxCell id="aLwHEmpXXD0iLYEQgi4S-124" value="WorkerController" style="swimlane;fontStyle=1;align=center;verticalAlign=top;childLayout=stackLayout;horizontal=1;startSize=50;horizontalStack=0;resizeParent=1;resizeParentMax=0;resizeLast=0;collapsible=1;marginBottom=0;fillColor=#FFFFFF;" vertex="1" parent="1">
          <mxGeometry x="-107.5" y="70" width="225" height="160" as="geometry" />
        </mxCell>
        <mxCell id="aLwHEmpXXD0iLYEQgi4S-125" value="" style="text;strokeColor=none;align=left;verticalAlign=top;spacingLeft=4;spacingRight=4;overflow=hidden;rotatable=0;points=[[0,0.5],[1,0.5]];portConstraint=eastwest;fillColor=#ffffff;" vertex="1" parent="aLwHEmpXXD0iLYEQgi4S-124">
          <mxGeometry y="50" width="225" height="20" as="geometry" />
        </mxCell>
        <mxCell id="aLwHEmpXXD0iLYEQgi4S-126" value="" style="line;strokeWidth=1;fillColor=none;align=left;verticalAlign=middle;spacingTop=-1;spacingLeft=3;spacingRight=3;rotatable=0;labelPosition=right;points=[];portConstraint=eastwest;" vertex="1" parent="aLwHEmpXXD0iLYEQgi4S-124">
          <mxGeometry y="70" width="225" height="8" as="geometry" />
        </mxCell>
        <mxCell id="aLwHEmpXXD0iLYEQgi4S-127" value="+ startWorkingDay()" style="text;strokeColor=none;align=left;verticalAlign=top;spacingLeft=4;spacingRight=4;overflow=hidden;rotatable=0;points=[[0,0.5],[1,0.5]];portConstraint=eastwest;fillColor=#ffffff;" vertex="1" parent="aLwHEmpXXD0iLYEQgi4S-124">
          <mxGeometry y="78" width="225" height="82" as="geometry" />
        </mxCell>
        <mxCell id="aLwHEmpXXD0iLYEQgi4S-128" value="" style="endArrow=none;dashed=1;html=1;dashPattern=1 3;strokeWidth=5;fillColor=#f8cecc;strokeColor=#b85450;" edge="1" parent="1">
          <mxGeometry width="50" height="50" relative="1" as="geometry">
            <mxPoint x="-600" y="-2" as="sourcePoint" />
            <mxPoint x="800" y="-2" as="targetPoint" />
          </mxGeometry>
        </mxCell>
        <mxCell id="aLwHEmpXXD0iLYEQgi4S-129" value="&lt;span style=&quot;font-size: 21px&quot;&gt;Controller&lt;/span&gt;" style="text;html=1;strokeColor=none;fillColor=none;align=center;verticalAlign=middle;whiteSpace=wrap;rounded=0;strokeWidth=1;" vertex="1" parent="1">
          <mxGeometry x="-650" y="90" width="100" height="80" as="geometry" />
        </mxCell>
        <mxCell id="aLwHEmpXXD0iLYEQgi4S-130" value="Farm" style="swimlane;fontStyle=1;align=center;verticalAlign=top;childLayout=stackLayout;horizontal=1;startSize=40;horizontalStack=0;resizeParent=1;resizeParentMax=0;resizeLast=0;collapsible=1;marginBottom=0;fillColor=#FFFFFF;" vertex="1" parent="1">
          <mxGeometry x="640" y="-1001" width="170" height="154" as="geometry" />
        </mxCell>
        <mxCell id="aLwHEmpXXD0iLYEQgi4S-131" value="- id: int&#xa;- areas: Collection&lt;Area&gt;&#xa;- animals: Collection&lt;Animal&gt;&#xa;- workers: Collection&lt;Worker&gt;&#xa;-Â accountBalance: BigDecimal" style="text;strokeColor=none;align=left;verticalAlign=top;spacingLeft=4;spacingRight=4;overflow=hidden;rotatable=0;points=[[0,0.5],[1,0.5]];portConstraint=eastwest;fillColor=#ffffff;" vertex="1" parent="aLwHEmpXXD0iLYEQgi4S-130">
          <mxGeometry y="40" width="170" height="80" as="geometry" />
        </mxCell>
        <mxCell id="aLwHEmpXXD0iLYEQgi4S-132" value="" style="line;strokeWidth=1;fillColor=none;align=left;verticalAlign=middle;spacingTop=-1;spacingLeft=3;spacingRight=3;rotatable=0;labelPosition=right;points=[];portConstraint=eastwest;" vertex="1" parent="aLwHEmpXXD0iLYEQgi4S-130">
          <mxGeometry y="120" width="170" height="4" as="geometry" />
        </mxCell>
        <mxCell id="aLwHEmpXXD0iLYEQgi4S-133" value="+ constructor" style="text;strokeColor=none;align=left;verticalAlign=top;spacingLeft=4;spacingRight=4;overflow=hidden;rotatable=0;points=[[0,0.5],[1,0.5]];portConstraint=eastwest;fillColor=#ffffff;" vertex="1" parent="aLwHEmpXXD0iLYEQgi4S-130">
          <mxGeometry y="124" width="170" height="30" as="geometry" />
        </mxCell>
        <mxCell id="aLwHEmpXXD0iLYEQgi4S-192" value="interface&#xa;FarmRepository" style="swimlane;fontStyle=1;align=center;verticalAlign=top;childLayout=stackLayout;horizontal=1;startSize=50;horizontalStack=0;resizeParent=1;resizeParentMax=0;resizeLast=0;collapsible=1;marginBottom=0;fillColor=#FFFFFF;" vertex="1" parent="1">
          <mxGeometry x="550" y="-760" width="190" height="150" as="geometry" />
        </mxCell>
        <mxCell id="aLwHEmpXXD0iLYEQgi4S-193" value="" style="text;strokeColor=none;align=left;verticalAlign=top;spacingLeft=4;spacingRight=4;overflow=hidden;rotatable=0;points=[[0,0.5],[1,0.5]];portConstraint=eastwest;fillColor=#ffffff;" vertex="1" parent="aLwHEmpXXD0iLYEQgi4S-192">
          <mxGeometry y="50" width="190" height="20" as="geometry" />
        </mxCell>
        <mxCell id="aLwHEmpXXD0iLYEQgi4S-194" value="" style="line;strokeWidth=1;fillColor=none;align=left;verticalAlign=middle;spacingTop=-1;spacingLeft=3;spacingRight=3;rotatable=0;labelPosition=right;points=[];portConstraint=eastwest;" vertex="1" parent="aLwHEmpXXD0iLYEQgi4S-192">
          <mxGeometry y="70" width="190" height="8" as="geometry" />
        </mxCell>
        <mxCell id="aLwHEmpXXD0iLYEQgi4S-195" value="+ BigDecimal reciveBalance (int id)&#xa;+ void addFarm (Farm farm)&#xa;+ void deleteFarm (int id)" style="text;strokeColor=none;align=left;verticalAlign=top;spacingLeft=4;spacingRight=4;overflow=hidden;rotatable=0;points=[[0,0.5],[1,0.5]];portConstraint=eastwest;fillColor=#ffffff;" vertex="1" parent="aLwHEmpXXD0iLYEQgi4S-192">
          <mxGeometry y="78" width="190" height="72" as="geometry" />
        </mxCell>
        <mxCell id="aLwHEmpXXD0iLYEQgi4S-196" value="interface&#xa;FarmService" style="swimlane;fontStyle=1;align=center;verticalAlign=top;childLayout=stackLayout;horizontal=1;startSize=50;horizontalStack=0;resizeParent=1;resizeParentMax=0;resizeLast=0;collapsible=1;marginBottom=0;fillColor=#FFFFFF;" vertex="1" parent="1">
          <mxGeometry x="460" y="-550" width="190" height="190" as="geometry" />
        </mxCell>
        <mxCell id="aLwHEmpXXD0iLYEQgi4S-197" value="" style="text;strokeColor=none;align=left;verticalAlign=top;spacingLeft=4;spacingRight=4;overflow=hidden;rotatable=0;points=[[0,0.5],[1,0.5]];portConstraint=eastwest;fillColor=#ffffff;" vertex="1" parent="aLwHEmpXXD0iLYEQgi4S-196">
          <mxGeometry y="50" width="190" height="20" as="geometry" />
        </mxCell>
        <mxCell id="aLwHEmpXXD0iLYEQgi4S-198" value="" style="line;strokeWidth=1;fillColor=none;align=left;verticalAlign=middle;spacingTop=-1;spacingLeft=3;spacingRight=3;rotatable=0;labelPosition=right;points=[];portConstraint=eastwest;" vertex="1" parent="aLwHEmpXXD0iLYEQgi4S-196">
          <mxGeometry y="70" width="190" height="8" as="geometry" />
        </mxCell>
        <mxCell id="aLwHEmpXXD0iLYEQgi4S-199" value="+ Farm receiveById(int id)" style="text;strokeColor=none;align=left;verticalAlign=top;spacingLeft=4;spacingRight=4;overflow=hidden;rotatable=0;points=[[0,0.5],[1,0.5]];portConstraint=eastwest;fillColor=#ffffff;" vertex="1" parent="aLwHEmpXXD0iLYEQgi4S-196">
          <mxGeometry y="78" width="190" height="112" as="geometry" />
        </mxCell>
        <mxCell id="aLwHEmpXXD0iLYEQgi4S-200" value="interface&#xa;AnimalService" style="swimlane;fontStyle=1;align=center;verticalAlign=top;childLayout=stackLayout;horizontal=1;startSize=50;horizontalStack=0;resizeParent=1;resizeParentMax=0;resizeLast=0;collapsible=1;marginBottom=0;fillColor=#FFFFFF;" vertex="1" parent="1">
          <mxGeometry x="-720" y="-540" width="190" height="210" as="geometry" />
        </mxCell>
        <mxCell id="aLwHEmpXXD0iLYEQgi4S-201" value="" style="text;strokeColor=none;align=left;verticalAlign=top;spacingLeft=4;spacingRight=4;overflow=hidden;rotatable=0;points=[[0,0.5],[1,0.5]];portConstraint=eastwest;fillColor=#ffffff;" vertex="1" parent="aLwHEmpXXD0iLYEQgi4S-200">
          <mxGeometry y="50" width="190" height="20" as="geometry" />
        </mxCell>
        <mxCell id="aLwHEmpXXD0iLYEQgi4S-202" value="" style="line;strokeWidth=1;fillColor=none;align=left;verticalAlign=middle;spacingTop=-1;spacingLeft=3;spacingRight=3;rotatable=0;labelPosition=right;points=[];portConstraint=eastwest;" vertex="1" parent="aLwHEmpXXD0iLYEQgi4S-200">
          <mxGeometry y="70" width="190" height="8" as="geometry" />
        </mxCell>
        <mxCell id="aLwHEmpXXD0iLYEQgi4S-203" value="+ Collection&lt;Animal&gt; &#xa;receiveAllFormFarm (int farmId)&#xa;+ void add(Animal animal)&#xa;+ void delete(int id)" style="text;strokeColor=none;align=left;verticalAlign=top;spacingLeft=4;spacingRight=4;overflow=hidden;rotatable=0;points=[[0,0.5],[1,0.5]];portConstraint=eastwest;fillColor=#ffffff;" vertex="1" parent="aLwHEmpXXD0iLYEQgi4S-200">
          <mxGeometry y="78" width="190" height="132" as="geometry" />
        </mxCell>
        <mxCell id="aLwHEmpXXD0iLYEQgi4S-204" value="&lt;font style=&quot;font-size: 16px&quot;&gt;All URLs&lt;br&gt;&lt;br&gt;GET /farm/new-day&lt;br&gt;&lt;/font&gt;" style="rounded=1;whiteSpace=wrap;html=1;fillColor=#ffffff;" vertex="1" parent="1">
          <mxGeometry x="-805" y="260" width="265" height="300" as="geometry" />
        </mxCell>
        <mxCell id="aLwHEmpXXD0iLYEQgi4S-205" value="&#xa;DogService" style="swimlane;fontStyle=1;align=center;verticalAlign=top;childLayout=stackLayout;horizontal=1;startSize=50;horizontalStack=0;resizeParent=1;resizeParentMax=0;resizeLast=0;collapsible=1;marginBottom=0;fillColor=#FFFFFF;" vertex="1" parent="1">
          <mxGeometry x="-500" y="-540" width="190" height="210" as="geometry" />
        </mxCell>
        <mxCell id="aLwHEmpXXD0iLYEQgi4S-206" value="" style="text;strokeColor=none;align=left;verticalAlign=top;spacingLeft=4;spacingRight=4;overflow=hidden;rotatable=0;points=[[0,0.5],[1,0.5]];portConstraint=eastwest;fillColor=#ffffff;" vertex="1" parent="aLwHEmpXXD0iLYEQgi4S-205">
          <mxGeometry y="50" width="190" height="20" as="geometry" />
        </mxCell>
        <mxCell id="aLwHEmpXXD0iLYEQgi4S-207" value="" style="line;strokeWidth=1;fillColor=none;align=left;verticalAlign=middle;spacingTop=-1;spacingLeft=3;spacingRight=3;rotatable=0;labelPosition=right;points=[];portConstraint=eastwest;" vertex="1" parent="aLwHEmpXXD0iLYEQgi4S-205">
          <mxGeometry y="70" width="190" height="8" as="geometry" />
        </mxCell>
        <mxCell id="aLwHEmpXXD0iLYEQgi4S-208" value="+ Collection&lt;Animal&gt;Â &#xa;receiveAllFromFarm (int farmId)&#xa;+ void add(Animal animal)&#xa;+ void delete(int id)" style="text;strokeColor=none;align=left;verticalAlign=top;spacingLeft=4;spacingRight=4;overflow=hidden;rotatable=0;points=[[0,0.5],[1,0.5]];portConstraint=eastwest;fillColor=#ffffff;" vertex="1" parent="aLwHEmpXXD0iLYEQgi4S-205">
          <mxGeometry y="78" width="190" height="132" as="geometry" />
        </mxCell>
        <mxCell id="aLwHEmpXXD0iLYEQgi4S-209" style="edgeStyle=orthogonalEdgeStyle;rounded=0;orthogonalLoop=1;jettySize=auto;html=1;entryX=1.012;entryY=0.274;entryDx=0;entryDy=0;entryPerimeter=0;endArrow=blockThin;endFill=0;dashed=1;" edge="1" parent="1" source="aLwHEmpXXD0iLYEQgi4S-208" target="aLwHEmpXXD0iLYEQgi4S-203">
          <mxGeometry relative="1" as="geometry" />
        </mxCell>
        <mxCell id="aLwHEmpXXD0iLYEQgi4S-210" value="&#xa;WorkerServiceImpl" style="swimlane;fontStyle=1;align=center;verticalAlign=top;childLayout=stackLayout;horizontal=1;startSize=50;horizontalStack=0;resizeParent=1;resizeParentMax=0;resizeLast=0;collapsible=1;marginBottom=0;fillColor=#FFFFFF;" vertex="1" parent="1">
          <mxGeometry x="-30" y="-530" width="190" height="230" as="geometry" />
        </mxCell>
        <mxCell id="aLwHEmpXXD0iLYEQgi4S-211" value="" style="text;strokeColor=none;align=left;verticalAlign=top;spacingLeft=4;spacingRight=4;overflow=hidden;rotatable=0;points=[[0,0.5],[1,0.5]];portConstraint=eastwest;fillColor=#ffffff;" vertex="1" parent="aLwHEmpXXD0iLYEQgi4S-210">
          <mxGeometry y="50" width="190" height="20" as="geometry" />
        </mxCell>
        <mxCell id="aLwHEmpXXD0iLYEQgi4S-212" value="" style="line;strokeWidth=1;fillColor=none;align=left;verticalAlign=middle;spacingTop=-1;spacingLeft=3;spacingRight=3;rotatable=0;labelPosition=right;points=[];portConstraint=eastwest;" vertex="1" parent="aLwHEmpXXD0iLYEQgi4S-210">
          <mxGeometry y="70" width="190" height="8" as="geometry" />
        </mxCell>
        <mxCell id="aLwHEmpXXD0iLYEQgi4S-213" value="+ Worker receiveWhoFeed&#xa;(Animal animal);&#xa;+ Worker receiveWhoTreatÂ &#xa;(Animal animal)&#xa;+ Worker receiveWhoTrain&#xa;(Animal animal)&#xa;+ Worker receiveWhoEntertainÂ &#xa;(Animal animal)&#xa;+ Worker receiveWhoClean&#xa;(Area area)&#xa;" style="text;strokeColor=none;align=left;verticalAlign=top;spacingLeft=4;spacingRight=4;overflow=hidden;rotatable=0;points=[[0,0.5],[1,0.5]];portConstraint=eastwest;fillColor=#ffffff;" vertex="1" parent="aLwHEmpXXD0iLYEQgi4S-210">
          <mxGeometry y="78" width="190" height="152" as="geometry" />
        </mxCell>
        <mxCell id="aLwHEmpXXD0iLYEQgi4S-214" style="edgeStyle=orthogonalEdgeStyle;rounded=0;orthogonalLoop=1;jettySize=auto;html=1;entryX=1.005;entryY=0.321;entryDx=0;entryDy=0;entryPerimeter=0;dashed=1;endArrow=blockThin;endFill=0;" edge="1" parent="1" source="aLwHEmpXXD0iLYEQgi4S-213" target="aLwHEmpXXD0iLYEQgi4S-78">
          <mxGeometry relative="1" as="geometry" />
        </mxCell>
      </root>
    </mxGraphModel>
  </diagram>
</mxfile>
